<svg width="512" height="512" viewBox="0 0 512 512" fill="none" xmlns="http://www.w3.org/2000/svg">
<rect width="512" height="512" fill="#004AC0"/>
<g clip-path="url(#clip0_2509_1064)">
<path d="M284.217 250.265L353.525 161.545C357.413 156.577 350.987 150.151 346.019 154.039L283.056 203.232C281.814 204.204 279.978 203.394 279.87 201.828L271.446 90.9409C270.96 84.677 261.969 84.218 260.835 90.3739L238.885 209.55C238.615 210.981 236.968 211.656 235.78 210.792L186.425 175.153C181.511 171.589 175.409 177.69 178.946 182.631L227.113 249.374C228.112 250.778 228.085 252.668 227.032 254.018L158.318 341.956C154.43 346.924 160.856 353.349 165.824 349.462L231.649 298.054C232.891 297.082 234.727 297.892 234.835 299.485L243.151 420.632C243.583 426.923 252.654 427.409 253.761 421.199L275.442 298.027C275.685 296.596 277.359 295.921 278.547 296.758L326.363 331.264C331.277 334.828 337.379 328.726 333.842 323.785L284.109 254.882C283.11 253.478 283.137 251.588 284.19 250.238L284.217 250.265Z" fill="white"/>
</g>
<defs>
<clipPath id="clip0_2509_1064">
<rect width="197.61" height="339.627" fill="white" transform="translate(157.13 86)"/>
</clipPath>
</defs>
</svg>
